<svg xmlns="http://www.w3.org/2000/svg" viewBox="0 0 640 400" role="img" aria-labelledby="title desc">
  <title id="title">The Lab icon</title>
  <desc id="desc">Abstract early-internet style icon for The Lab project</desc>
  <defs>
    <linearGradient id="bg" x1="0" y1="0" x2="1" y2="1">
      <stop offset="0%" stop-color="#1a0f2f"/>
      <stop offset="100%" stop-color="#3a1f52"/>
    </linearGradient>
    <linearGradient id="line" x1="0" y1="0" x2="1" y2="0">
      <stop offset="0%" stop-color="#ff6aa8"/>
      <stop offset="100%" stop-color="#78e5ff"/>
    </linearGradient>
  </defs>
  <rect width="640" height="400" fill="url(#bg)"/>
  <g opacity="0.2" stroke="#ffffff" stroke-width="1">
    <path d="M0 80h640M0 160h640M0 240h640M0 320h640"/>
    <path d="M80 0v400M160 0v400M240 0v400M320 0v400M400 0v400M480 0v400M560 0v400"/>
  </g>
  <rect x="90" y="86" width="460" height="228" rx="14" fill="#0e0b1a" stroke="url(#line)" stroke-width="5"/>
  <rect x="116" y="116" width="408" height="170" rx="8" fill="#120d22" stroke="#ff6aa8" stroke-opacity="0.5"/>
  <path d="M150 250l76-100 74 72 70-90 120 118" fill="none" stroke="url(#line)" stroke-width="8" stroke-linecap="round" stroke-linejoin="round"/>
  <circle cx="150" cy="250" r="9" fill="#78e5ff"/>
  <circle cx="226" cy="150" r="9" fill="#ff6aa8"/>
  <circle cx="300" cy="222" r="9" fill="#78e5ff"/>
  <circle cx="370" cy="132" r="9" fill="#ff6aa8"/>
  <circle cx="490" cy="250" r="9" fill="#78e5ff"/>
  <text x="320" y="352" fill="#ffd8ee" font-family="Verdana, Tahoma, sans-serif" font-size="24" text-anchor="middle" letter-spacing="2">THE LAB</text>
</svg>
