<svg xmlns="http://www.w3.org/2000/svg" viewBox="0 0 640 400" role="img" aria-labelledby="title desc">
  <title id="title">Social Hub icon</title>
  <desc id="desc">Abstract network icon for Social Hub project</desc>
  <defs>
    <linearGradient id="bg2" x1="0" y1="0" x2="1" y2="1">
      <stop offset="0%" stop-color="#220f1d"/>
      <stop offset="100%" stop-color="#3b1f33"/>
    </linearGradient>
    <linearGradient id="ring" x1="0" y1="0" x2="1" y2="1">
      <stop offset="0%" stop-color="#ff87b8"/>
      <stop offset="100%" stop-color="#ffd4e6"/>
    </linearGradient>
  </defs>
  <rect width="640" height="400" fill="url(#bg2)"/>
  <g opacity="0.15">
    <circle cx="320" cy="200" r="150" fill="none" stroke="#ffffff" stroke-width="2"/>
    <circle cx="320" cy="200" r="110" fill="none" stroke="#ffffff" stroke-width="2"/>
    <circle cx="320" cy="200" r="70" fill="none" stroke="#ffffff" stroke-width="2"/>
  </g>
  <g stroke="url(#ring)" stroke-width="4" fill="none" stroke-linecap="round">
    <path d="M180 140L320 200L470 120"/>
    <path d="M150 260L320 200L490 260"/>
    <path d="M210 310L320 200L420 320"/>
  </g>
  <g fill="#ffd4e6" stroke="#ff87b8" stroke-width="3">
    <circle cx="320" cy="200" r="24"/>
    <circle cx="180" cy="140" r="16"/>
    <circle cx="470" cy="120" r="16"/>
    <circle cx="150" cy="260" r="16"/>
    <circle cx="490" cy="260" r="16"/>
    <circle cx="210" cy="310" r="16"/>
    <circle cx="420" cy="320" r="16"/>
  </g>
  <text x="320" y="356" fill="#ffeaf3" font-family="Verdana, Tahoma, sans-serif" font-size="24" text-anchor="middle" letter-spacing="2">SOCIAL HUB</text>
</svg>
